PathFileType	4	(X/Y/Z)	D:\TRACE\v60_Jaco2_6-2-23\BothDRS_Motion1_9-v60.trc
DataRate	CameraRate	NumFrames	NumMarkers	Units	OrigDataRate	OrigDataStartFrame	OrigNumFrames
100.00	100.00	      28	9	mm	100.00	2813	      7500
Frame#	Time	front left toe			Front right toe			aft left toe			aft right toe			Arm			FL body			FR body			AL Body			AR Body			
		X1	Y1	Z1	X2	Y2	Z2	X3	Y3	Z3	X4	Y4	Z4	X5	Y5	Z5	X6	Y6	Z6	X7	Y7	Z7	X8	Y8	Z8	X9	Y9	Z9	

2813	28.120	-95.54663	57.16338	-279.19827	260.43176	18.55762	-291.64532	-115.93999	8.67436	336.09064	293.79645	58.96249	339.14984	96.00621	1124.87891	-711.92474	4.73162	572.03278	-420.83804	164.28227	569.11353	-423.40454	16.80733	571.41528	525.24768	174.38365	561.96136	524.43231	
2814	28.130	-93.87883	49.41791	-277.95483	261.36914	18.88672	-291.47028	-115.44861	8.58748	336.21417	295.94781	51.57853	340.33420	96.82150	1125.06995	-711.49054	5.29731	572.64691	-420.58899	165.84943	569.29077	-423.02158	18.57666	570.95978	526.07184	175.68320	561.63989	524.99176	
2815	28.140	-91.88020	42.24544	-276.92584	262.45813	19.24412	-291.01974	-114.96917	8.60638	336.34979	297.23093	44.65332	341.60040	98.02079	1124.99841	-710.66217	7.67123	571.94812	-419.94415	167.15129	569.57043	-422.64722	19.71266	570.61481	526.34863	177.48347	561.38397	525.75366	
2816	28.150	-90.79767	35.87045	-275.61588	263.38791	19.32264	-290.82321	-114.39463	8.63727	336.46234	298.95587	38.26117	342.66156	98.69923	1124.95313	-710.17834	8.51294	572.21332	-419.75534	168.28340	569.43884	-421.93152	21.43906	570.35431	526.74005	179.17596	561.18225	526.16437	
2817	28.160	-89.41405	29.69773	-274.51611	262.20566	19.06748	-291.23340	-113.39344	8.21120	336.52710	300.28467	31.78730	343.80237	99.39963	1124.92432	-709.40448	11.14799	571.99585	-418.68695	170.82373	569.58447	-421.43088	23.18976	569.93433	527.62762	180.45808	560.80695	526.64514	
2818	28.170	-87.92028	24.17893	-273.76959	262.85141	19.16928	-291.07285	-112.94410	8.03426	336.65176	301.17209	24.92329	344.85419	100.26555	1125.01221	-708.56616	12.50136	571.88702	-418.20093	172.34213	569.50531	-420.90909	24.61049	569.52759	527.84589	182.52583	560.74030	527.88190	
2819	28.180	-89.07126	24.32952	-276.25137	263.68527	19.34264	-290.91397	-112.45662	7.95803	336.75986	303.03671	17.63501	345.83762	100.96745	1125.22876	-707.79053	13.26011	572.24219	-418.01538	174.08214	569.64630	-420.37875	26.18678	568.89581	528.49585	184.08858	560.00659	527.90833	
2820	28.190	-88.69821	23.08788	-274.76389	264.06458	19.52971	-290.80923	-112.02989	8.03435	336.94128	303.90219	15.70016	343.96494	102.33510	1125.43652	-706.71039	15.13114	573.19189	-417.22937	175.50832	570.50757	-419.36185	28.39030	568.48212	529.61023	185.61026	559.73730	529.11743	
2821	28.200	-87.93130	24.88487	-274.74472	264.28564	19.73986	-290.74734	-111.29711	8.17154	337.07672	304.77679	12.35166	344.40051	103.96072	1125.94922	-705.18774	16.71567	574.39490	-416.26459	177.06029	571.53589	-418.77090	29.98817	568.71057	530.25824	187.39783	559.66052	529.28387	
2822	28.210	-86.85132	25.22873	-274.58792	264.86819	20.29644	-290.51501	-110.12436	8.40956	337.16922	306.32425	12.53886	343.62912	106.23902	1127.61841	-703.78009	18.99524	574.47876	-415.10748	178.58984	572.15735	-418.14014	31.34183	569.49561	531.30017	188.50584	561.18182	529.93005	
2823	28.220	-85.63547	24.53621	-272.18643	266.19690	23.54880	-290.23111	-108.59681	11.43779	336.89395	306.77240	12.30266	346.04364	108.75603	1129.66553	-702.72620	19.96980	575.02057	-415.00409	180.44501	572.73499	-417.12067	32.65000	570.31879	531.45935	190.13205	562.07648	530.77911	
2824	28.230	-85.17050	25.17438	-273.63480	264.36771	27.74148	-287.00912	-103.52671	14.45805	339.07858	306.57242	11.31699	344.94315	111.21358	1131.52258	-701.66895	21.37341	576.36414	-414.77930	182.12096	573.68042	-416.82416	34.03840	570.17969	531.87115	191.28322	561.92877	531.23285	
2825	28.240	-84.45525	25.23282	-273.35147	262.74023	32.85146	-283.01746	-97.60202	18.23825	342.84409	307.39542	11.16549	345.18597	112.89258	1132.84216	-701.15485	23.39059	577.19037	-414.33087	183.44160	574.58777	-416.64984	34.96118	569.55066	532.02924	192.54807	561.25018	531.42566	
2826	28.250	-84.09857	25.06618	-273.10858	262.62820	43.17051	-282.38217	-93.69176	27.63757	342.60278	307.80280	10.44710	345.77957	114.69408	1133.73169	-699.96173	24.54763	577.81476	-414.35287	184.32954	575.45038	-416.17288	36.51252	568.71185	532.12927	194.00639	560.66998	531.54266	
2827	28.260	-84.19057	25.10134	-273.44809	264.70270	54.43409	-282.45932	-90.78041	37.09863	341.29028	308.21207	10.41253	345.00513	115.79037	1134.79065	-699.14496	26.32649	578.22369	-413.96222	185.33456	575.99261	-416.25745	37.69369	568.05927	532.17297	195.44179	559.69916	531.51373	
2828	28.270	-84.17561	25.13835	-273.14417	267.54410	66.70595	-284.25607	-89.94196	49.64608	338.65402	308.58139	10.17350	346.06714	116.94807	1135.41528	-698.55298	26.10435	579.18231	-414.24213	186.48973	576.25348	-416.24963	39.36618	567.32916	532.31506	197.16380	558.80505	531.68335	
2829	28.280	-84.05959	25.26072	-273.10858	271.22632	79.49398	-286.17499	-91.03256	62.85239	336.25137	308.72760	9.64217	345.77094	117.66882	1135.82495	-697.97858	27.64827	579.26306	-414.06168	187.85452	576.39795	-416.58395	41.06829	566.26538	532.40448	199.02541	557.77301	531.73230	
2830	28.290	-83.87852	25.37295	-273.13983	274.45935	92.53677	-287.97665	-91.60297	75.65089	334.72873	309.14426	9.01714	345.53397	118.56251	1136.17017	-697.21533	29.09125	579.33856	-413.84354	188.73048	576.63007	-416.68958	42.76399	565.16302	532.46729	200.31984	556.70044	531.60577	
2831	28.300	-83.54162	25.35152	-273.06931	278.09680	105.17898	-289.68201	-89.52081	87.10188	334.78625	309.34424	8.82110	345.83896	119.20460	1136.61475	-696.43518	29.60575	579.33545	-413.93787	189.55905	576.77295	-416.72330	44.69855	563.65906	531.93201	201.99744	555.55383	531.47974	
2832	28.310	-83.11502	25.14750	-272.99725	281.53961	117.72617	-290.70654	-86.72277	99.35818	334.81995	309.37433	8.67461	345.86719	119.74847	1137.25464	-696.01196	29.97430	580.05035	-414.31555	190.71362	576.92383	-416.81500	45.63784	563.34497	532.15204	203.66498	554.66412	531.18359	
2833	28.320	-83.32641	25.33664	-272.86240	284.46225	129.33830	-291.56458	-83.54731	110.35427	334.53546	309.54315	8.57160	345.84653	120.35612	1137.90601	-695.55493	30.41022	580.34418	-414.32751	190.80714	576.88287	-416.88593	47.27044	562.64417	532.12115	205.16634	554.17883	532.02991	
2834	28.330	-84.08331	26.12044	-272.75055	287.53491	140.12494	-292.40558	-79.46954	120.10085	334.06482	309.87402	8.13962	345.99017	120.91341	1137.98303	-695.50189	31.25507	580.42572	-414.40408	191.92046	576.75946	-417.41260	48.97396	562.01025	532.17548	206.67241	553.43726	531.82922	
2835	28.340	-84.02457	26.24099	-272.59103	290.19977	149.11389	-293.54813	-75.90877	128.96172	333.40637	310.23975	7.65472	345.92740	121.75017	1137.97095	-695.23065	32.33950	580.12476	-414.35678	192.78401	576.72998	-417.54459	51.03251	561.04095	531.89081	208.41196	552.96204	531.42072	
2836	28.350	-83.86319	26.33651	-272.38419	292.95767	154.32008	-294.01581	-72.65401	135.13560	333.48962	310.52380	7.40438	346.05103	122.89597	1137.95886	-694.98468	32.84289	579.96350	-414.39584	192.95992	576.73688	-418.03485	52.30113	561.62817	531.88788	210.83031	552.31238	531.22742	
2837	28.360	-83.52372	26.43146	-272.14352	295.54953	157.29425	-294.33347	-69.46230	136.66374	333.82480	310.79868	7.31035	346.19882	124.33353	1137.77490	-695.26135	33.65826	579.86993	-414.08755	193.55789	576.77673	-418.69754	53.86726	561.39771	531.92145	212.44307	552.53674	531.27808	
2838	28.370	-83.43507	26.74970	-271.88754	298.18488	157.63190	-294.27435	-66.62504	136.31877	334.46518	310.73447	7.04958	345.99158	124.98254	1137.58044	-695.54230	34.21516	579.93506	-413.89679	193.52994	576.34943	-417.94644	56.46948	560.85913	531.96869	213.69073	552.55383	531.00842	
2839	28.380	-83.40359	26.92468	-271.84018	300.73495	154.98624	-294.22665	-63.90992	134.02850	335.17493	310.91776	6.92344	346.06586	125.53372	1137.38513	-695.80859	34.50893	580.17029	-413.76596	194.03143	576.59973	-418.22812	58.28225	561.20068	531.92834	215.66212	552.60681	531.13464	
2840	28.390	-83.49672	27.25692	-271.69534	302.81528	150.98862	-294.16058	-59.64142	129.42058	336.58380	310.92389	6.58962	346.04401	125.79907	1137.36694	-696.05688	35.32713	580.46570	-413.85022	194.56085	576.71527	-418.39786	60.25310	561.26959	531.81140	218.10524	552.48932	530.85120	
